# xmcd CD database file
#
# Track frame offsets:
#	150
#	19080
#	34286
#	45891
#	64866
#	86906
#	99867
#	108816
#	124740
#	143482
#
# Disc length: 2105 seconds
#
# Revision: 0
# Processed by: cddbd v1.5.2PL0 Copyright (c) Steve Scherf et al.
# Submitted via: CDex 1.51
#
DISCID=7608370a
DTITLE=Tessa Smith and The Apple Jacks - You've Got To Pay The Band
DYEAR=2013
DGENRE=Jazz
TTITLE0=Why Don't You Do Right
TTITLE1=I've Got The World On A String
TTITLE2=Happy Feet
TTITLE3=Tan't What You Do
TTITLE4=Hallelujah, I Love Him So
TTITLE5=I Like Pie, I Like Cake
TTITLE6=Swing Brother, Swing
TTITLE7=Sunshine Songs
TTITLE8=Blue Skies
TTITLE9=You've Gotta Pay The Band
EXTD=YEAR: 2013
EXTT0=
EXTT1=
EXTT2=
EXTT3=
EXTT4=
EXTT5=
EXTT6=
EXTT7=
EXTT8=
EXTT9=
PLAYORDER=
